<?xml version="1.0" encoding="UTF-8"?>
<svg width="512px" height="512px" viewBox="0 0 512 512" version="1.1" xmlns="http://www.w3.org/2000/svg" xmlns:xlink="http://www.w3.org/1999/xlink">
    <!-- Generator: Sketch 49.1 (51147) - http://www.bohemiancoding.com/sketch -->
    
    
    <defs>
        <linearGradient x1="52.7836621%" y1="-16.3418613%" x2="52.7836621%" y2="32.9842033%" id="linearGradient-1">
            <stop stop-color="#45ACE5" offset="0%"></stop>
            <stop stop-color="#1479C9" offset="100%"></stop>
        </linearGradient>
    </defs>
    <g id="iOS-icons/FSA/iTunesArtwork/" stroke="none" stroke-width="1" fill="none" fill-rule="evenodd">
        <g id="Smax-Icon-w-Gradient">
            <g>
                <g id="BG">
                    <polygon id="Rectangle-2-Copy-52" fill="url(#linearGradient-1)" points="2.13162821e-14 0 512 0 512 512 2.13162821e-14 512"></polygon>
                    <polygon id="Rectangle-2-Copy-53" fill="#0C426F" points="512 -1.80411242e-16 512 512 170.666667 512"></polygon>
                </g>
                <g id="svmx" transform="translate(67.016484, 78.769231)" fill="#FFFFFF">
                    <path d="M3.48351648,129.730769 C-1.00750958,125.293426 -0.363972877,119.07303 4.98351648,115.730769 L88.9835165,61.7307692 C94.2183707,58.4661184 102.080682,59.2205513 106.483516,63.7307692 L182.483516,136.730769 C186.785618,141.100461 186.486269,147.764687 181.483516,151.730769 L105.483516,213.730769 C100.410203,217.418806 92.8946793,217.072597 88.4835165,212.730769 L3.48351648,129.730769 Z M120.983516,54.2307692 C116.557917,50.1368404 117.006378,43.9508123 121.983516,40.2307692 L178.483516,2.73076923 C183.906588,-0.964905145 191.852924,-0.408579369 196.483516,3.73076923 L265.483516,66.2307692 C270.273067,70.2274637 270.084932,76.6683982 264.983516,80.7307692 L211.483516,122.230769 C206.506008,125.884557 198.777006,125.544754 194.483516,121.230769 L120.983516,54.2307692 Z M127.483516,253.230769 C121.188632,246.68248 121.483043,236.032649 128.483516,229.730769 L198.983516,162.730769 C203.605873,158.661503 210.907614,158.670557 215.483516,162.730769 L300.983516,244.230769 C307.499277,250.52651 308.409277,261.821495 302.983516,269.230769 L242.483516,349.730769 C236.895211,357.196763 227.133861,357.764051 220.483516,351.230769 L127.483516,253.230769 Z M229.983516,151.730769 C225.295349,147.430025 225.349228,140.734118 229.983516,136.730769 L280.483516,92.2307692 C285.12782,88.2843002 292.805488,88.1573179 297.483516,92.2307692 L374.983516,155.730769 C379.666988,159.633613 380.386483,166.755437 376.483516,171.730769 L331.483516,226.730769 C327.421022,231.534289 320.43885,232.094844 315.983516,227.730769 L229.983516,151.730769 Z" id="Combined-Shape"></path>
                </g>
            </g>
        </g>
    </g>
</svg>